<svg width="370" height="237" viewBox="0 0 370 237" fill="none" xmlns="http://www.w3.org/2000/svg">
<path opacity="0.64" d="M360.426 211.28C365.889 219.475 361.829 230.426 352.237 232.662C309.19 242.696 261.045 231.802 216.928 231.802C166.669 231.802 142.732 236.782 125.761 227.17C125.761 220.416 140.343 146.974 190.602 146.974C298.008 146.974 337.611 177.052 360.426 211.28Z" fill="black"/>
<path opacity="0.5" d="M110.352 226.244C121.972 226.007 132.501 228.564 132.501 228.564L132.225 221.25C126.666 220.126 123.897 221.161 112.412 220.481C105.213 219.095 99.1004 215.748 101.985 214.125C105.591 212.096 123.552 203.86 135.173 208.275C144.47 211.808 139.627 203.311 136.044 198.622C115.992 193.046 98.4847 200.214 95.4409 206.686C92.6302 212.663 93.2117 218.072 104.078 224.715C105.95 225.859 108.159 226.288 110.352 226.244Z" fill="black"/>
<path d="M113.921 139.213C113.921 139.213 121.105 125.625 132.626 124.576C149.775 123.015 192.575 133.924 192.575 133.924L209.909 199.889C171.692 206.837 115.756 186.364 115.756 186.364L113.921 139.213Z" fill="black"/>
<g filter="url(#filter0_i_47_19)">
<path d="M103.997 223.965C110.075 219.61 115.756 217.672 115.756 217.672L113.495 211.229C109.926 212.671 108.605 214.822 101.702 219.276C97.0992 221.206 92.5678 220.897 93.787 218.168C95.311 214.758 103.439 199.445 111.494 198.284C117.939 197.355 112.671 191.865 109.232 189.236C95.9199 193.073 87.7504 207.226 87.8298 214.378C87.8949 220.234 89.39 224.513 95.4839 226.223C98.4501 227.055 101.493 225.759 103.997 223.965Z" fill="#2976DF"/>
</g>
<path d="M103.997 223.965C110.075 219.61 115.756 217.672 115.756 217.672L113.495 211.229C109.926 212.671 108.605 214.822 101.702 219.276C97.0992 221.206 92.5678 220.897 93.787 218.168C95.311 214.758 103.439 199.445 111.494 198.284C117.939 197.355 112.671 191.865 109.232 189.236C95.9199 193.073 87.7504 207.226 87.8298 214.378C87.8949 220.234 89.39 224.513 95.4839 226.223C98.4501 227.055 101.493 225.759 103.997 223.965Z" stroke="black" stroke-width="1.64489" stroke-linecap="round"/>
<path d="M294.272 216.729C291.132 227.006 267.483 222.232 259.65 221.678C246.298 220.733 229.934 221.006 208.228 221.898C195.795 222.409 180.31 222.347 172.36 221.898C164.156 221.435 132.333 239.788 115.304 217.221C112.382 210.575 107.241 191.965 110.056 170.695C112.871 149.426 112.812 148.966 112.812 141.544C113.468 139.805 114.425 138.124 115.551 136.539C117.067 134.14 119.522 131.697 121.914 129.636C125.584 126.392 128.853 124.368 128.853 124.368C128.853 124.368 125.454 126.584 121.914 129.636C119.734 131.563 117.412 133.92 115.551 136.539C115.064 137.31 114.674 138.076 114.415 138.824C111.094 170.695 126.427 188.426 143.191 194.508C159.956 200.591 198.153 192.905 202.598 192.371C165.891 194.508 134.331 154.425 129.429 124.719C127.725 105.877 132.011 64.8925 140.737 89.3454C145.427 90.8012 155.025 94.8923 160.516 100.741C173.789 97.1819 181.103 100.25 181.103 100.25C181.103 100.25 183.982 89.3115 188.685 88.9575C193.978 88.5591 206.521 86.1211 210.33 88.6837C214.924 89.0722 225.949 89.616 233.301 88.6837C242.492 87.5183 264.19 79.9191 265.372 83.7267C268.448 89.7724 270.091 92.5322 270.091 92.5322C270.091 92.5322 282.162 97.2307 285.592 105.606C289.88 116.076 306.92 152.342 305.306 169.121C304.016 182.545 297.413 206.453 294.272 216.729Z" fill="#1D4ED8"/>
<path d="M294.272 216.729L293.077 216.364L293.077 216.364L294.272 216.729ZM259.65 221.678L259.561 222.925L259.561 222.925L259.65 221.678ZM208.228 221.898L208.177 220.649L208.177 220.649L208.228 221.898ZM172.36 221.898L172.43 220.65L172.43 220.65L172.36 221.898ZM115.304 217.221L114.159 217.724L114.218 217.857L114.306 217.974L115.304 217.221ZM110.056 170.695L108.817 170.531L108.817 170.531L110.056 170.695ZM112.812 141.544L111.642 141.103L111.562 141.316V141.544H112.812ZM128.853 124.368L129.536 125.416L128.195 123.305L128.853 124.368ZM114.415 138.824L113.234 138.414L113.187 138.55L113.172 138.694L114.415 138.824ZM202.598 192.371L202.747 193.612C203.417 193.532 203.903 192.933 203.843 192.26C203.783 191.588 203.199 191.084 202.525 191.123L202.598 192.371ZM129.429 124.719L128.184 124.832L128.188 124.877L128.196 124.923L129.429 124.719ZM140.737 89.3454L139.56 89.7656L139.56 89.7656L140.737 89.3454ZM144.158 107.298C144.3 107.973 144.963 108.406 145.638 108.264C146.314 108.122 146.747 107.459 146.605 106.784L144.158 107.298ZM160.516 100.741L159.605 101.597L159.605 101.597L160.516 100.741ZM162.823 113.921C162.703 114.601 163.156 115.249 163.836 115.37C164.515 115.491 165.164 115.037 165.285 114.358L162.823 113.921ZM188.685 88.9575L188.591 87.7111L188.591 87.7111L188.685 88.9575ZM211.251 89.7251L212.419 89.2797L212.406 89.2459L212.392 89.213L211.251 89.7251ZM220.437 121.643C220.58 122.319 221.244 122.75 221.919 122.606C222.595 122.462 223.025 121.798 222.882 121.123L220.437 121.643ZM233.301 88.6837L233.459 89.9238L233.459 89.9238L233.301 88.6837ZM265.372 83.7267L264.178 84.0972L264.209 84.1988L264.258 84.2936L265.372 83.7267ZM270.091 92.5322L269.017 93.1716L269.03 93.194L269.044 93.2157L270.091 92.5322ZM291.502 148.356L292.751 148.315L292.751 148.315L291.502 148.356ZM285.592 105.606L284.435 106.08L284.435 106.08L285.592 105.606ZM305.306 169.121L306.551 169.241L306.551 169.241L305.306 169.121ZM196.608 156.349L196.036 157.46L196.11 157.499L196.189 157.527L196.608 156.349ZM233.301 154.028L232.817 155.18L232.919 155.223L233.026 155.247L233.301 154.028ZM291.502 154.542L290.252 154.515L290.252 154.553L290.253 154.59L291.502 154.542ZM293.077 216.364C292.449 218.418 290.787 219.825 288.221 220.738C285.637 221.657 282.307 222.004 278.717 222.015C275.145 222.026 271.411 221.704 268.057 221.341C264.75 220.982 261.724 220.571 259.738 220.431L259.561 222.925C261.492 223.061 264.359 223.455 267.788 223.826C271.17 224.193 275.013 224.526 278.725 224.515C282.419 224.504 286.08 224.153 289.058 223.094C292.053 222.028 294.525 220.179 295.468 217.095L293.077 216.364ZM259.738 220.431C246.31 219.481 229.886 219.757 208.177 220.649L208.28 223.147C229.983 222.256 246.286 221.985 259.561 222.925L259.738 220.431ZM208.177 220.649C195.773 221.159 180.33 221.096 172.43 220.65L172.29 223.146C180.29 223.598 195.817 223.659 208.28 223.147L208.177 220.649ZM172.43 220.65C171.203 220.581 169.651 220.86 167.954 221.276C166.23 221.698 164.214 222.299 162.024 222.947C157.615 224.252 152.412 225.773 146.951 226.613C136.028 228.294 124.407 227.21 116.301 216.468L114.306 217.974C123.23 229.8 136.035 230.822 147.332 229.084C152.981 228.215 158.336 226.646 162.733 225.344C164.947 224.689 166.896 224.109 168.549 223.704C170.229 223.293 171.466 223.1 172.29 223.146L172.43 220.65ZM116.448 216.718C113.606 210.253 108.514 191.874 111.296 170.859L108.817 170.531C105.968 192.056 111.157 210.896 114.159 217.724L116.448 216.718ZM111.296 170.859C114.111 149.585 114.062 149.055 114.062 141.544H111.562C111.562 148.878 111.632 149.267 108.817 170.531L111.296 170.859ZM113.982 141.985C114.591 140.37 115.49 138.784 116.57 137.263L114.532 135.815C113.361 137.464 112.345 139.24 111.642 141.103L113.982 141.985ZM116.57 137.263C118.357 134.748 120.604 132.461 122.742 130.572L121.086 128.699C118.863 130.664 116.467 133.092 114.532 135.815L116.57 137.263ZM122.742 130.572C124.537 128.986 126.236 127.696 127.486 126.803C128.111 126.357 128.622 126.011 128.974 125.778C129.15 125.662 129.287 125.573 129.378 125.515C129.424 125.486 129.459 125.464 129.481 125.45C129.492 125.443 129.5 125.438 129.505 125.435C129.508 125.433 129.51 125.432 129.511 125.432C129.511 125.431 129.511 125.431 129.512 125.431C129.512 125.431 129.512 125.431 129.512 125.431C129.511 125.431 129.511 125.431 129.511 125.431C129.511 125.431 129.511 125.431 128.853 124.368C128.195 123.305 128.195 123.306 128.195 123.306C128.195 123.306 128.195 123.306 128.195 123.306C128.195 123.306 128.194 123.306 128.194 123.306C128.193 123.307 128.192 123.307 128.191 123.308C128.189 123.309 128.186 123.311 128.182 123.314C128.175 123.318 128.164 123.325 128.151 123.334C128.123 123.351 128.084 123.376 128.033 123.408C127.931 123.473 127.784 123.568 127.596 123.692C127.221 123.94 126.685 124.303 126.033 124.768C124.731 125.698 122.961 127.042 121.086 128.699L122.742 130.572ZM128.853 124.368C128.171 123.321 128.171 123.321 128.171 123.321C128.171 123.321 128.17 123.321 128.17 123.321C128.17 123.322 128.17 123.322 128.17 123.322C128.169 123.322 128.168 123.323 128.167 123.324C128.165 123.325 128.162 123.327 128.158 123.329C128.151 123.334 128.14 123.341 128.127 123.35C128.099 123.368 128.059 123.395 128.007 123.429C127.904 123.498 127.753 123.599 127.562 123.73C127.18 123.991 126.635 124.37 125.978 124.845C124.667 125.794 122.902 127.133 121.098 128.689L122.73 130.583C124.466 129.086 126.171 127.792 127.444 126.87C128.08 126.41 128.606 126.044 128.972 125.794C129.155 125.67 129.297 125.574 129.393 125.51C129.442 125.478 129.478 125.454 129.502 125.438C129.514 125.43 129.523 125.424 129.529 125.42C129.531 125.418 129.533 125.417 129.535 125.416C129.535 125.416 129.536 125.416 129.536 125.416C129.536 125.415 129.536 125.415 129.536 125.415C129.536 125.415 129.536 125.415 129.536 125.415C129.536 125.415 129.536 125.416 128.853 124.368ZM121.098 128.689C118.679 130.774 116.11 133.314 114.494 135.872L116.608 137.207C118.023 134.967 120.366 132.62 122.73 130.583L121.098 128.689ZM114.494 135.872C113.971 136.701 113.533 137.554 113.234 138.414L115.596 139.234C115.816 138.599 116.158 137.92 116.608 137.207L114.494 135.872ZM113.172 138.694C109.796 171.098 125.424 189.392 142.765 195.683L143.618 193.333C127.429 187.459 112.393 170.293 115.658 138.953L113.172 138.694ZM142.765 195.683C147.147 197.273 152.838 197.938 158.895 198.065C164.972 198.193 171.511 197.781 177.639 197.165C183.771 196.547 189.511 195.723 193.991 195.02C198.522 194.31 201.662 193.743 202.747 193.612L202.449 191.13C201.311 191.267 198.009 191.86 193.604 192.551C189.149 193.249 183.458 194.066 177.389 194.677C171.317 195.288 164.886 195.691 158.947 195.566C152.988 195.44 147.618 194.785 143.618 193.333L142.765 195.683ZM202.525 191.123C184.661 192.163 167.926 182.929 154.983 169.615C142.04 156.301 133.065 139.078 130.662 124.515L128.196 124.923C130.695 140.066 139.951 157.738 153.19 171.357C166.43 184.977 183.828 194.716 202.67 193.619L202.525 191.123ZM130.674 124.606C129.832 115.295 130.474 100.461 132.396 91.0467C132.876 88.6972 133.425 86.7392 134.027 85.3085C134.328 84.5932 134.627 84.0469 134.912 83.6593C135.203 83.2633 135.425 83.1064 135.548 83.0528C135.624 83.0199 135.685 83.0084 135.816 83.0644C135.993 83.1402 136.296 83.3491 136.701 83.8542C137.516 84.8697 138.481 86.7431 139.56 89.7656L141.914 88.9253C140.811 85.8345 139.734 83.6396 138.651 82.2896C138.107 81.612 137.496 81.0637 136.798 80.7654C136.053 80.4473 135.275 80.4447 134.55 80.7608C133.872 81.0562 133.331 81.5884 132.897 82.179C132.457 82.778 132.069 83.5157 131.723 84.3391C131.03 85.9856 130.442 88.1236 129.947 90.5465C127.971 100.221 127.322 115.301 128.184 124.832L130.674 124.606ZM139.56 89.7656C140.963 93.6991 142.5 99.4065 144.158 107.298L146.605 106.784C144.937 98.8436 143.373 93.0117 141.914 88.9253L139.56 89.7656ZM140.366 90.5392C144.989 91.9739 154.337 95.9851 159.605 101.597L161.427 99.8855C155.714 93.7994 145.866 89.6285 141.107 88.1516L140.366 90.5392ZM159.605 101.597C159.603 101.594 159.61 101.602 159.627 101.623C159.643 101.644 159.665 101.673 159.692 101.71C159.746 101.787 159.814 101.888 159.894 102.017C160.053 102.274 160.246 102.616 160.457 103.029C160.88 103.857 161.363 104.941 161.792 106.163C162.663 108.644 163.249 111.519 162.823 113.921L165.285 114.358C165.822 111.327 165.074 107.964 164.151 105.335C163.683 104.002 163.155 102.814 162.683 101.891C162.237 101.018 161.778 100.259 161.427 99.8855L159.605 101.597ZM160.84 101.948C167.331 100.208 172.329 100.097 175.672 100.406C177.345 100.56 178.607 100.82 179.438 101.036C179.854 101.144 180.162 101.241 180.359 101.309C180.458 101.342 180.529 101.368 180.573 101.385C180.594 101.393 180.609 101.399 180.617 101.402C180.621 101.404 180.623 101.404 180.623 101.405C180.623 101.405 180.623 101.405 180.622 101.404C180.622 101.404 180.622 101.404 180.621 101.404C180.621 101.404 180.62 101.403 180.62 101.403C180.619 101.403 180.619 101.403 181.103 100.25C181.586 99.0975 181.585 99.0972 181.585 99.097C181.585 99.0968 181.584 99.0966 181.583 99.0964C181.582 99.0959 181.581 99.0955 181.58 99.0949C181.577 99.0939 181.575 99.0927 181.571 99.0913C181.564 99.0885 181.556 99.085 181.545 99.0809C181.525 99.0725 181.497 99.0616 181.461 99.0482C181.391 99.0215 181.292 98.9853 181.165 98.942C180.911 98.8555 180.544 98.7406 180.067 98.6165C179.112 98.3684 177.716 98.0839 175.902 97.9162C172.27 97.5807 166.975 97.7151 160.192 99.5337L160.84 101.948ZM181.103 100.25C182.311 100.568 182.311 100.569 182.311 100.569C182.311 100.569 182.311 100.569 182.311 100.569C182.311 100.569 182.311 100.569 182.311 100.568C182.312 100.568 182.312 100.566 182.312 100.564C182.314 100.56 182.315 100.554 182.318 100.545C182.323 100.527 182.33 100.499 182.341 100.461C182.361 100.387 182.393 100.275 182.435 100.131C182.519 99.8438 182.646 99.4297 182.812 98.9305C183.146 97.9287 183.635 96.5996 184.261 95.2688C184.892 93.9274 185.636 92.642 186.461 91.6897C187.302 90.7182 188.084 90.2563 188.778 90.204L188.591 87.7111C186.934 87.8358 185.592 88.8739 184.571 90.053C183.533 91.2512 182.675 92.7669 181.999 94.2044C181.318 95.6525 180.793 97.0802 180.44 98.1404C180.263 98.6722 180.127 99.1155 180.036 99.4277C179.99 99.5839 179.955 99.7075 179.931 99.7932C179.92 99.8361 179.91 99.8696 179.904 99.8929C179.901 99.9046 179.899 99.9137 179.897 99.9203C179.896 99.9235 179.895 99.9261 179.895 99.9281C179.894 99.9291 179.894 99.9299 179.894 99.9305C179.894 99.9309 179.894 99.9312 179.894 99.9314C179.894 99.9317 179.894 99.932 181.103 100.25ZM210.083 90.1706C212.37 96.1668 217.078 105.862 220.437 121.643L222.882 121.123C219.471 105.093 214.645 95.1165 212.419 89.2797L210.083 90.1706ZM188.778 90.204C190.14 90.1015 191.956 89.8692 193.918 89.6269C195.898 89.3823 198.056 89.1234 200.163 88.9563C202.275 88.7888 204.294 88.7171 205.998 88.8363C207.751 88.959 208.967 89.2732 209.633 89.7209L211.028 87.6466C209.789 86.8129 208.009 86.4709 206.173 86.3424C204.288 86.2105 202.127 86.2927 199.965 86.4641C197.798 86.636 195.591 86.9012 193.611 87.1457C191.613 87.3925 189.876 87.6143 188.591 87.7111L188.778 90.204ZM209.633 89.7209C209.901 89.9018 210.039 90.0775 210.111 90.2373L212.392 89.213C212.091 88.5439 211.6 88.0317 211.028 87.6466L209.633 89.7209ZM210.225 89.9293C214.834 90.319 225.968 90.8735 233.459 89.9238L233.144 87.4436C225.929 88.3585 215.014 87.8253 210.436 87.4382L210.225 89.9293ZM233.459 89.9238C238.138 89.3305 246.021 87.0995 252.624 85.5576C255.983 84.7733 259.014 84.1636 261.258 83.9767C262.391 83.8824 263.227 83.9053 263.771 84.0213C264.358 84.1464 264.236 84.2858 264.178 84.0972L266.565 83.3562C266.212 82.2158 265.153 81.7597 264.292 81.5762C263.387 81.3834 262.262 81.3845 261.051 81.4854C258.607 81.6889 255.418 82.3378 252.056 83.1231C245.216 84.7202 237.656 86.8716 233.144 87.4436L233.459 89.9238ZM264.258 84.2936C265.802 87.3281 266.988 89.5413 267.79 90.9991C268.191 91.728 268.496 92.268 268.701 92.6273C268.804 92.807 268.882 92.9415 268.935 93.0319C268.961 93.0771 268.981 93.1112 268.995 93.1345C269.002 93.1461 269.007 93.155 269.011 93.1612C269.012 93.1643 269.014 93.1667 269.015 93.1684C269.015 93.1693 269.016 93.17 269.016 93.1705C269.016 93.1708 269.016 93.171 269.017 93.1712C269.017 93.1713 269.017 93.1714 269.017 93.1714C269.017 93.1715 269.017 93.1716 270.091 92.5322C271.165 91.8928 271.165 91.8929 271.165 91.8929C271.165 91.8929 271.165 91.893 271.165 91.893C271.165 91.893 271.165 91.893 271.165 91.8929C271.165 91.8927 271.165 91.8924 271.164 91.8919C271.164 91.891 271.163 91.8894 271.162 91.887C271.159 91.8824 271.154 91.8751 271.149 91.865C271.137 91.8449 271.118 91.8138 271.094 91.7718C271.045 91.6876 270.97 91.5593 270.871 91.3857C270.672 91.0387 270.374 90.5109 269.98 89.7941C269.191 88.3605 268.018 86.171 266.486 83.1598L264.258 84.2936ZM270.091 92.5322C269.044 93.2157 269.044 93.2157 269.044 93.2157C269.044 93.2159 269.045 93.2161 269.045 93.2165C269.045 93.2172 269.046 93.2184 269.047 93.2201C269.049 93.2235 269.053 93.2287 269.057 93.2359C269.067 93.2502 269.081 93.2721 269.1 93.3014C269.138 93.3599 269.194 93.4481 269.269 93.5646C269.417 93.7977 269.636 94.1444 269.916 94.5952C270.476 95.4968 271.278 96.8145 272.244 98.4725C274.177 101.789 276.762 106.463 279.371 111.889C284.609 122.781 289.863 136.54 290.253 148.397L292.751 148.315C292.344 135.912 286.892 121.76 281.624 110.805C278.98 105.307 276.362 100.573 274.404 97.2139C273.425 95.5337 272.611 94.1959 272.04 93.2766C271.755 92.8169 271.53 92.4617 271.377 92.2206C271.3 92.1 271.241 92.008 271.2 91.9456C271.18 91.9144 271.165 91.8907 271.154 91.8745C271.149 91.8664 271.145 91.8602 271.142 91.8559C271.141 91.8537 271.14 91.852 271.139 91.8509C271.138 91.8503 271.138 91.8497 271.138 91.8494C271.138 91.849 271.137 91.8487 270.091 92.5322ZM270.091 92.5322C269.637 93.6971 269.637 93.697 269.637 93.6969C269.637 93.6969 269.637 93.6968 269.637 93.6968C269.637 93.6968 269.637 93.6969 269.637 93.697C269.638 93.6973 269.639 93.6979 269.642 93.6987C269.646 93.7004 269.653 93.7032 269.663 93.7071C269.683 93.715 269.713 93.7273 269.755 93.7442C269.837 93.7779 269.961 93.8295 270.122 93.8988C270.445 94.0373 270.913 94.2462 271.488 94.5232C272.639 95.0782 274.208 95.9026 275.878 96.9791C279.261 99.16 282.868 102.254 284.435 106.08L286.749 105.133C284.885 100.583 280.742 97.1401 277.232 94.8778C275.456 93.7326 273.793 92.859 272.573 92.2712C271.963 91.9769 271.462 91.7533 271.11 91.6022C270.934 91.5266 270.796 91.4691 270.7 91.4299C270.652 91.4102 270.615 91.3952 270.588 91.3848C270.575 91.3796 270.565 91.3755 270.558 91.3726C270.554 91.3712 270.551 91.37 270.549 91.3691C270.548 91.3687 270.547 91.3683 270.546 91.368C270.546 91.3679 270.545 91.3677 270.545 91.3676C270.545 91.3675 270.544 91.3673 270.091 92.5322ZM284.435 106.08C286.608 111.386 291.903 122.979 296.489 135.43C298.778 141.643 300.873 148.027 302.295 153.885C303.723 159.768 304.445 165.018 304.062 169.002L306.551 169.241C306.974 164.835 306.172 159.259 304.724 153.296C303.271 147.308 301.141 140.825 298.835 134.566C294.233 122.071 288.863 110.296 286.749 105.133L284.435 106.08ZM304.062 169.002C302.785 182.283 296.22 206.078 293.077 216.364L295.468 217.095C298.605 206.828 305.246 182.806 306.551 169.241L304.062 169.002ZM181.103 100.25C179.869 100.455 179.869 100.455 179.87 100.456C179.87 100.456 179.87 100.457 179.87 100.458C179.87 100.459 179.871 100.462 179.871 100.465C179.872 100.472 179.874 100.481 179.876 100.494C179.88 100.52 179.887 100.558 179.895 100.608C179.912 100.709 179.937 100.857 179.97 101.051C180.036 101.439 180.133 102.008 180.26 102.732C180.512 104.182 180.881 106.255 181.344 108.753C182.27 113.749 183.577 120.451 185.096 127.265C186.614 134.072 188.351 141.022 190.141 146.501C191.034 149.238 191.953 151.645 192.88 153.497C193.343 154.423 193.823 155.24 194.321 155.898C194.808 156.543 195.374 157.12 196.036 157.46L197.18 155.238C196.996 155.143 196.7 154.9 196.315 154.391C195.941 153.896 195.539 153.225 195.116 152.379C194.269 150.686 193.394 148.412 192.517 145.725C190.765 140.36 189.048 133.502 187.536 126.721C186.026 119.946 184.725 113.276 183.802 108.298C183.341 105.809 182.974 103.745 182.722 102.303C182.597 101.582 182.5 101.017 182.435 100.632C182.402 100.44 182.377 100.293 182.361 100.194C182.352 100.145 182.346 100.107 182.342 100.082C182.34 100.07 182.338 100.061 182.337 100.054C182.337 100.051 182.336 100.049 182.336 100.048C182.336 100.047 182.336 100.046 182.336 100.046C182.336 100.046 182.336 100.045 181.103 100.25ZM196.189 157.527C198.74 158.434 202.111 158.563 205.663 158.348C209.248 158.13 213.173 157.549 216.906 156.933C220.668 156.313 224.199 155.664 227.106 155.284C228.554 155.094 229.804 154.978 230.814 154.963C231.864 154.947 232.5 155.047 232.817 155.18L233.786 152.876C232.965 152.531 231.889 152.447 230.777 152.463C229.626 152.48 228.266 152.611 226.781 152.805C223.82 153.193 220.19 153.858 216.499 154.467C212.778 155.08 208.96 155.643 205.512 155.852C202.031 156.063 199.082 155.902 197.027 155.171L196.189 157.527ZM233.026 155.247C234.611 155.605 239.097 156.122 244.819 156.62C250.585 157.121 257.711 157.612 264.648 157.905C271.576 158.197 278.35 158.293 283.397 157.999C285.908 157.853 288.061 157.607 289.606 157.217C290.368 157.024 291.08 156.774 291.625 156.421C292.162 156.073 292.788 155.447 292.751 154.494L290.253 154.59C290.24 154.259 290.479 154.184 290.266 154.322C290.061 154.455 289.659 154.625 288.994 154.793C287.684 155.123 285.723 155.36 283.252 155.503C278.332 155.79 271.657 155.698 264.753 155.407C257.858 155.116 250.769 154.628 245.036 154.129C239.259 153.627 234.961 153.121 233.577 152.809L233.026 155.247ZM291.502 154.542C292.752 154.568 292.752 154.568 292.752 154.568C292.752 154.568 292.752 154.568 292.752 154.568C292.752 154.568 292.752 154.567 292.752 154.567C292.752 154.567 292.752 154.566 292.752 154.565C292.752 154.563 292.752 154.56 292.752 154.556C292.752 154.549 292.752 154.538 292.753 154.524C292.753 154.495 292.754 154.453 292.755 154.398C292.757 154.289 292.76 154.131 292.763 153.934C292.769 153.541 292.777 152.99 292.782 152.364C292.792 151.116 292.792 149.549 292.751 148.315L290.253 148.397C290.292 149.578 290.292 151.103 290.282 152.344C290.277 152.963 290.27 153.506 290.263 153.895C290.26 154.089 290.258 154.245 290.256 154.352C290.255 154.405 290.254 154.446 290.253 154.474C290.253 154.488 290.253 154.498 290.253 154.505C290.253 154.509 290.252 154.511 290.252 154.513C290.252 154.514 290.252 154.514 290.252 154.515C290.252 154.515 290.252 154.515 290.252 154.515C290.252 154.515 290.252 154.515 290.252 154.515C290.252 154.515 290.252 154.515 291.502 154.542Z" fill="black"/>
<path d="M142 90.598C142 90.598 162.24 97.7104 160.509 101.618C166.312 112.837 163.476 114.55 163.476 114.55C163.476 114.55 153.799 91.2241 146.099 107.518C144.512 100.888 142 90.598 142 90.598Z" fill="black" fill-opacity="0.64"/>
<path fill-rule="evenodd" clip-rule="evenodd" d="M302.822 183.976C302.735 183.987 302.647 183.999 302.558 184.011C279.227 192.756 237.34 199.319 203.756 192.756C127.309 206.97 120.431 183.13 112.968 157.262L112.858 156.883C112.502 156.96 112.151 157.048 111.806 157.148C111.404 160.446 110.843 164.761 110.057 170.695C107.242 191.964 112.382 210.574 115.304 217.22C128.171 234.27 149.481 227.963 162.67 224.059C166.938 222.796 170.355 221.785 172.361 221.898C180.311 222.346 195.796 222.409 208.229 221.898C229.935 221.006 246.299 220.733 259.65 221.677C260.881 221.764 262.501 221.956 264.371 222.176C274.407 223.36 291.626 225.391 294.273 216.729C296.436 209.651 300.241 196.107 302.822 183.976Z" fill="black" fill-opacity="0.5"/>
<path d="M203.061 192.869C244.811 196.465 260.547 199.666 301.952 184.381" stroke="black" stroke-width="1.64489" stroke-linecap="round"/>
<path d="M189.157 89.7244C184.455 90.0783 182.981 97.1702 182.413 100.787C185.303 119.331 191.966 154.624 197.177 155.85C202.24 157.042 216.671 155.85 228.017 153.064C228.677 147.064 223.255 129.246 220.553 120.693C217.168 104.787 212.533 95.6783 210.276 89.7618C210.09 89.3474 209.48 89.3215 209.059 89.0385C205.25 86.476 194.451 89.3259 189.157 89.7244Z" fill="#1D4ED8"/>
<path d="M189.157 89.7244C184.455 90.0783 182.981 97.1702 182.413 100.787C185.303 119.331 191.966 154.624 197.177 155.85C202.24 157.042 216.671 155.85 228.017 153.064C228.677 147.064 223.255 129.246 220.553 120.693C217.168 104.787 212.533 95.6783 210.276 89.7618C210.09 89.3474 209.48 89.3215 209.059 89.0385C205.25 86.476 194.451 89.3259 189.157 89.7244Z" fill="black" fill-opacity="0.14"/>
<path fill-rule="evenodd" clip-rule="evenodd" d="M230.692 135.015L225.841 135.351L226.146 139.762L230.997 139.426C232.216 139.342 233.135 138.286 233.051 137.068C232.966 135.85 231.91 134.931 230.692 135.015ZM230.599 138.56C231.327 138.56 231.917 137.97 231.917 137.242C231.917 136.513 231.327 135.923 230.599 135.923C229.87 135.923 229.28 136.513 229.28 137.242C229.28 137.97 229.87 138.56 230.599 138.56Z" fill="#F2C94C"/>
<path d="M94.7916 126.75C94.9095 125.754 94.638 124.751 94.0338 123.95C93.4296 123.15 92.5394 122.614 91.5493 122.455L55.0206 116.576C54.5032 116.493 53.9743 116.515 53.4657 116.641C52.9571 116.768 52.4793 116.996 52.061 117.311C51.6428 117.627 51.2927 118.024 51.0318 118.479C50.771 118.933 50.6047 119.436 50.5431 119.956L50.1808 123.015C50.1192 123.535 50.1634 124.063 50.3109 124.566C50.4583 125.069 50.7059 125.537 51.0388 125.941C51.3717 126.346 51.783 126.679 52.248 126.921C52.713 127.163 53.222 127.308 53.7446 127.348L90.6353 130.168C91.6353 130.244 92.6261 129.931 93.4006 129.294C94.1752 128.657 94.6736 127.745 94.7916 126.75Z" fill="#EB5757"/>
<path d="M101.625 109.656C101.934 109.075 102.007 108.398 101.829 107.765C101.65 107.133 101.234 106.593 100.667 106.26L79.7511 93.9697C79.4548 93.7956 79.1264 93.6833 78.7856 93.6394C78.4448 93.5955 78.0986 93.6209 77.7679 93.7142C77.4372 93.8075 77.1287 93.9667 76.8611 94.1822C76.5935 94.3978 76.3722 94.6652 76.2105 94.9684L75.2608 96.7511C75.0992 97.0542 75.0006 97.3869 74.9709 97.7292C74.9412 98.0714 74.981 98.4161 75.0879 98.7426C75.1948 99.069 75.3666 99.3705 75.5929 99.6289C75.8193 99.8873 76.0955 100.097 76.4051 100.246L98.2713 110.754C98.864 111.039 99.5439 111.084 100.169 110.879C100.794 110.674 101.316 110.236 101.625 109.656V109.656Z" fill="#EB5757"/>
<path d="M116.651 102.582C118.494 101.609 119.03 98.9551 117.866 96.5661L97.2065 54.146C95.9723 51.6119 93.3147 50.3601 91.3605 51.3922L88.6368 52.831C86.6824 53.8631 86.2176 56.7637 87.6146 59.2118L110.998 100.193C112.315 102.501 114.809 103.555 116.651 102.582Z" fill="#EB5757"/>
<path d="M47.387 2.18411L47.3869 2.18412C46.7402 2.26288 46.1973 2.71322 45.9992 3.33601C45.9991 3.33629 45.999 3.33658 45.9989 3.33686L45.9155 3.60116L45.9122 3.61165L45.9122 3.61163C45.8461 3.81344 45.7678 4.04602 45.6755 4.30764C45.4144 5.05005 45.0979 5.87076 44.7261 6.74996L47.387 2.18411ZM47.387 2.18411C47.9947 2.11004 48.5979 2.38898 48.9957 2.9524C49.3082 3.39648 49.6045 3.84595 49.8848 4.30147L49.8848 4.30153C53.2663 9.79668 54.1448 15.4611 53.6824 20.4838C53.6823 20.485 53.6822 20.4862 53.6821 20.4874L53.6598 20.7113L53.615 21.091C53.6103 21.095 53.6054 21.0991 53.6004 21.1033C53.4218 21.2532 53.1465 21.4652 52.7827 21.7231C52.0577 22.2369 51.0175 22.9074 49.7704 23.5947C47.2606 24.9781 43.9975 26.3831 40.8236 26.7747L40.8235 26.7748C37.5518 27.1786 34.2771 26.5804 31.7845 25.8187C30.5431 25.4394 29.5145 25.0252 28.8002 24.6899C28.5183 24.5575 28.293 24.441 28.127 24.3474C28.1693 24.251 28.2527 24.1737 28.3612 24.1429L28.3614 24.1429M47.387 2.18411L28.3614 24.1429M28.3614 24.1429C33.3056 22.7399 37.4377 19.1213 40.8026 14.0904M28.3614 24.1429L40.8026 14.0904M40.8026 14.0904C42.3644 11.7554 43.6689 9.2516 44.7261 6.75012L40.8026 14.0904Z" fill="#D7D7D7" stroke="black" stroke-width="2"/>
<path fill-rule="evenodd" clip-rule="evenodd" d="M66.0955 2.3365L66.2675 2.6443L66.4777 3.03879C66.6047 3.28176 66.7466 3.56363 66.9015 3.88236C67.438 4.98596 67.9792 6.23492 68.4979 7.6122C69.9584 11.4888 70.9788 15.6725 71.3275 20.0316C71.8005 25.9468 70.9467 31.529 68.7839 36.6074L68.5989 37.034C66.8422 41.0013 64.2828 44.6363 60.9604 47.8973L60.6308 48.216L60.9106 48.2297C65.6956 48.431 70.4273 48.0024 74.5865 46.6763C75.4785 46.3917 76.451 46.5384 77.2195 47.0728C77.9867 47.6066 78.463 48.4651 78.5108 49.3981L78.5217 49.6875L78.5286 50.0704V50.2178C78.5286 50.7515 78.5129 51.3507 78.4746 52.0066C78.3702 53.8186 78.1191 55.7733 77.6816 57.814C76.4456 63.579 73.9749 68.9783 69.9366 73.5278C69.4002 74.1318 68.6467 74.4935 67.8447 74.5365L67.6598 74.5406C66.8039 74.5249 66.0218 74.1707 65.4662 73.5667L65.0595 73.0937L64.8602 72.8671L64.4364 72.3969L63.9723 71.8953C63.8105 71.724 63.6426 71.5472 63.4686 71.367C61.9862 69.8294 60.3496 68.3053 58.6112 66.9028C53.7942 63.0153 49.147 60.8204 45.1783 61.0586C38.6871 61.4483 33.3111 61.1453 28.3234 59.7455C21.8758 57.9368 16.8124 54.3872 13.462 48.7361L13.2742 48.4139C11.5395 45.3891 8.97758 41.9043 5.95555 38.2775C5.02162 37.1562 4.10045 36.0901 3.22242 35.1046L2.84882 34.6869C2.25068 34.0214 1.76058 33.4911 1.55515 33.2755C0.79676 32.4763 0.533178 31.3297 0.864531 30.2814L0.91319 30.1394C1.27717 29.16 2.12367 28.4338 3.1554 28.2298L8.68793 27.1364L8.75235 27.0436C10.732 24.2297 13.5585 21.8464 17.3133 20.8861C21.2295 19.8849 25.3504 20.7557 29.5007 23.3888L29.7901 23.5751C35.3954 27.2415 40.9509 27.0388 46.2335 24.2774C50.0063 22.3043 53.6031 18.9539 56.3276 14.8542C58.8617 11.0418 60.3673 6.96656 60.4751 3.74995C60.5195 2.40612 61.447 1.25201 62.7506 0.92305C64.0555 0.592721 65.4205 1.1708 66.0955 2.3365ZM63.7757 3.89259L63.7402 4.16832C63.2543 7.69683 61.892 12.6101 59.4289 16.3168C56.3959 20.88 52.1159 24.3696 47.8148 26.6191C41.6102 29.863 34.8562 30.4568 28.206 26.2423L27.9125 26.0533C24.4181 23.7676 21.7659 22.6674 18.1276 23.5751C14.4892 24.4835 12.7216 27.1337 11.1509 29.5927L11.0789 29.6965C10.8271 30.0329 10.4588 30.2657 10.0436 30.3476L3.14468 31.4402L5.65703 34.5613C6.41324 35.5079 6.9507 36.1897 7.26949 36.6074L10.0309 40.2458C18.2606 51.0395 27.1174 61.3452 44.3887 57.7778L44.9743 57.6522C49.5497 56.6346 53.386 59.3667 58.199 63.3927L59.2275 64.2588C60.5004 65.3365 64.3497 68.7292 65.9249 70.3631L66.4395 70.9029L66.9145 71.4141C67.0135 71.522 67.1076 71.6257 67.1977 71.7246L67.6885 72.2781L67.9901 71.9226C71.2477 68.0003 73.2883 62.0264 74.3448 57.0987C74.7441 55.2369 74.9727 53.4542 75.0683 51.8094L75.0799 51.5951C75.1045 51.1139 75.1154 50.6942 75.1174 50.344V50.0833L74.6254 50.228C68.9292 51.8435 62.5199 52.0039 56.2662 51.2825C54.7558 51.1084 71.3275 37.6858 67.926 20.3032C67.1506 16.342 66.6586 11.0452 65.3045 7.44977C64.8779 6.31546 64.435 5.27874 63.9961 4.35191L63.7757 3.89259Z" fill="#2976DF"/>
<path d="M66.2405 7.09778C65.8044 5.93809 65.3507 4.87602 64.9 3.92396L64.8977 3.91922L64.6772 3.4599L63.9179 1.87778C64.4547 1.99576 64.9353 2.33227 65.2268 2.83188C65.2279 2.83378 65.229 2.83569 65.2301 2.8376L65.3895 3.12312L65.5914 3.50187C65.592 3.50305 65.5926 3.50424 65.5932 3.50542C65.7146 3.73777 65.8516 4.00968 66.0022 4.31953C66.5247 5.39453 67.0538 6.61517 67.5621 7.96465L67.5621 7.96477C68.9934 11.7638 69.9902 15.8558 70.3307 20.1114C70.7917 25.8772 69.9588 31.295 67.8652 36.2125C67.8647 36.2135 67.8643 36.2146 67.8638 36.2156L67.6845 36.6291C67.684 36.6303 67.6835 36.6314 67.683 36.6326C66.2027 39.9746 64.1311 43.0813 61.4853 45.9254C62.1888 44.9749 62.9236 43.9237 63.6491 42.7826C67.2386 37.1372 70.6793 29.1663 68.9073 20.1112L67.926 20.3032L68.9073 20.1112C68.6739 18.9187 68.4705 17.6283 68.258 16.2809C68.1188 15.398 67.9758 14.4907 67.8179 13.5703C67.4275 11.2946 66.9534 8.99099 66.2405 7.09778ZM66.2405 7.09778L65.3045 7.44977M66.2405 7.09778C66.2404 7.09763 66.2404 7.09748 66.2403 7.09732L65.3045 7.44977M65.3045 7.44977C65.0522 6.77878 64.7941 6.14195 64.5346 5.54181L65.3045 7.44977ZM58.9599 49.1357C58.8707 49.2438 58.7838 49.349 58.6992 49.451C58.6136 49.5543 58.5311 49.6538 58.4516 49.7495C58.2374 50.0076 58.0458 50.2386 57.8776 50.4441C63.5573 50.9647 69.264 50.7083 74.348 49.2672C74.3495 49.2668 74.351 49.2664 74.3525 49.266L74.8353 49.1239L76.1174 48.747V50.0833V50.344V50.3499C76.1153 50.7158 76.1039 51.1506 76.0786 51.6461L76.0785 51.6492L76.0668 51.8635L76.0666 51.8674C75.9682 53.5621 75.7328 55.3955 75.3226 57.3084C74.2547 62.2892 72.1717 68.4528 68.7594 72.5615L68.7527 72.5695L68.7527 72.5695L68.451 72.9251L67.9428 73.5241C68.4209 73.4619 68.864 73.2295 69.1887 72.864L58.9599 49.1357ZM58.9599 49.1357L60.582 49.2148L60.8618 49.2285L60.8685 49.2288C65.7328 49.4335 70.5883 49.0007 74.8902 47.6291L74.8904 47.629C75.486 47.439 76.1352 47.5368 76.6486 47.8938M58.9599 49.1357L76.6486 47.8938M67.4581 73.5257L66.9402 72.9415L66.4583 72.3978C66.4568 72.3962 66.4553 72.3945 66.4538 72.3929C66.3885 72.3212 66.3227 72.2488 66.2549 72.1746C66.23 72.1473 66.2049 72.1199 66.1794 72.0921C66.1788 72.0915 66.1783 72.0909 66.1777 72.0903L65.7157 71.5929L65.7069 71.5836L65.205 71.0571C65.2045 71.0566 65.204 71.0562 65.2036 71.0557C63.666 69.4611 59.8537 66.0992 58.5819 65.0225C58.5817 65.0223 58.5816 65.0222 58.5814 65.022L57.5574 64.1597C57.5569 64.1593 57.5563 64.1588 57.5558 64.1584C52.674 60.0749 49.216 57.7333 45.1914 58.6284L45.1839 58.63L44.5984 58.7556L44.591 58.7572C35.6981 60.594 28.8991 58.8591 23.2777 55.2379C18.5942 52.2209 14.761 47.9131 11.2154 43.4125C12.3389 44.9841 13.3262 46.4948 14.1399 47.9134C14.1405 47.9144 14.1411 47.9154 14.1417 47.9165L14.3222 48.2261C14.3228 48.2271 14.3234 48.2281 14.324 48.2291C17.5265 53.629 22.3612 57.0344 28.5935 58.7826L28.5936 58.7827C33.4339 60.1411 38.6875 60.4465 45.1184 60.0604C49.4691 59.7993 54.3661 62.1919 59.2392 66.1245C61.0133 67.5559 62.6802 69.1085 64.1878 70.6723C64.1881 70.6725 64.1883 70.6727 64.1885 70.673L63.4686 71.367L67.4581 73.5257ZM67.4581 73.5257C66.9667 73.467 66.5325 73.2435 66.2125 72.9007L67.4581 73.5257ZM57.1604 15.4077C59.7587 11.4987 61.3586 7.24456 61.4746 3.78346L61.4746 3.78295C61.5043 2.88334 62.1252 2.11222 62.9953 1.89265L62.996 1.89247C63.0059 1.88996 63.0159 1.88752 63.0258 1.88516L62.7839 3.76494L62.7496 4.03189C62.7494 4.03328 62.7492 4.03466 62.749 4.03605C62.2748 7.47505 60.9469 12.2256 58.5961 15.7632C55.6697 20.166 51.5265 23.5493 47.3514 25.733C41.3934 28.8479 35.0301 29.3815 28.7444 25.3997C28.7434 25.399 28.7423 25.3983 28.7413 25.3977L28.4599 25.2164C28.459 25.2158 28.458 25.2152 28.4571 25.2145C24.8856 22.8788 21.9314 21.5955 17.8855 22.6049L17.8853 22.6049C13.8328 23.6167 11.8798 26.5941 10.3184 29.0383L10.2697 29.1085C10.169 29.2376 10.026 29.3281 9.86455 29.3635L2.98825 30.4525L1.80068 30.6406C1.80518 30.6248 1.80989 30.6089 1.8148 30.5931L1.8546 30.477C2.10042 29.8269 2.66432 29.3463 3.34943 29.2108L8.8818 28.1174L9.27873 28.039L9.50943 27.7066L9.57023 27.619C9.5708 27.6182 9.57137 27.6174 9.57195 27.6165C11.4484 24.9503 14.0896 22.7428 17.561 21.8549C21.1474 20.938 24.9857 21.7094 28.9622 24.2314C28.9631 24.232 28.964 24.2326 28.965 24.2332L29.2427 24.412C29.2437 24.4127 29.2447 24.4133 29.2457 24.414C35.1861 28.2981 41.1307 28.0732 46.6967 25.1637L46.6969 25.1636C50.6398 23.1015 54.3566 19.6267 57.1604 15.4077ZM57.1604 15.4077L56.3276 14.8542L57.1604 15.4077ZM76.6486 47.8938C77.1597 48.2495 77.478 48.821 77.5118 49.4428C77.5119 49.445 77.512 49.4471 77.5121 49.4492L77.5221 49.7155L77.5286 50.0792V50.2178C77.5286 50.732 77.5134 51.3119 77.4763 51.9484L77.4763 51.9491C77.3748 53.7108 77.1304 55.6146 76.7038 57.6044C75.4986 63.2256 73.0968 68.4612 69.1889 72.8638L76.6486 47.8938ZM7.64261 38.7531C7.34125 38.3827 7.03489 38.0107 6.72395 37.6375L6.7238 37.6374C5.78253 36.5072 4.85415 35.4328 3.96907 34.4394L3.96777 34.4379L3.59418 34.0202L3.59254 34.0184C2.99239 33.3507 2.49556 32.8129 2.2801 32.5867C1.9362 32.224 1.74445 31.7549 1.72546 31.2719L2.36571 32.0673L4.87572 35.1854C4.87616 35.186 4.8766 35.1865 4.87703 35.1871C5.63183 36.1319 6.16249 36.8053 6.47384 37.2132C6.47409 37.2135 6.47433 37.2138 6.47457 37.2141L7.64261 38.7531Z" fill="#2976DF" stroke="black" stroke-width="2"/>
<path fill-rule="evenodd" clip-rule="evenodd" d="M20.5164 34.6147C21.8336 34.6147 22.9052 33.5432 22.9052 32.226C22.9052 30.9087 21.8336 29.8372 20.5164 29.8372C19.1992 29.8372 18.1277 30.9087 18.1277 32.226C18.1277 33.5432 19.1992 34.6147 20.5164 34.6147Z" fill="#00160A"/>
<path d="M22.5635 44.1697C24.6367 44.1697 26.3173 42.7946 26.3173 41.0984C26.3173 39.4022 24.6367 38.0272 22.5635 38.0272C20.4904 38.0272 18.8098 39.4022 18.8098 41.0984C18.8098 42.7946 20.4904 44.1697 22.5635 44.1697Z" fill="#F2C94C"/>
<defs>
<filter id="filter0_i_47_19" x="87.0068" y="188.331" width="29.7997" height="38.9733" filterUnits="userSpaceOnUse" color-interpolation-filters="sRGB">
<feFlood flood-opacity="0" result="BackgroundImageFix"/>
<feBlend mode="normal" in="SourceGraphic" in2="BackgroundImageFix" result="shape"/>
<feColorMatrix in="SourceAlpha" type="matrix" values="0 0 0 0 0 0 0 0 0 0 0 0 0 0 0 0 0 0 127 0" result="hardAlpha"/>
<feOffset dy="19.7386"/>
<feComposite in2="hardAlpha" operator="arithmetic" k2="-1" k3="1"/>
<feColorMatrix type="matrix" values="0 0 0 0 0 0 0 0 0 0 0 0 0 0 0 0 0 0 0.55 0"/>
<feBlend mode="normal" in2="shape" result="effect1_innerShadow_47_19"/>
</filter>
</defs>
</svg>
